<svg xmlns="http://www.w3.org/2000/svg" version="1.0" width="1254.000000pt" height="1254.000000pt" viewBox="0 0 1254.000000 1254.000000" preserveAspectRatio="xMidYMid meet">

<g transform="translate(0.000000,1254.000000) scale(0.100000,-0.100000)" fill="#000000" stroke="none">
<path d="M0 6270 l0 -6270 6270 0 6270 0 0 6270 0 6270 -6270 0 -6270 0 0 -6270z m2868 5723 c-10 -2 -26 -2 -35 0 -10 3 -2 5 17 5 19 0 27 -2 18 -5z m3642 -1208 c317 -50 612 -148 1040 -347 266 -124 413 -184 505 -207 l40 -10 1 -480 c0 -264 -3 -478 -7 -475 -4 2 -10 18 -14 34 -22 100 -143 327 -254 474 -285 382 -726 650 -1236 753 -130 26 -157 28 -375 28 -204 0 -249 -3 -346 -22 -545 -111 -928 -427 -1085 -893 -110 -329 -54 -712 150 -1026 171 -263 353 -430 832 -759 193 -133 338 -266 407 -373 40 -63 86 -170 97 -227 3 -16 -3 -7 -13 20 -79 210 -222 363 -527 562 -47 31 -84 36 -93 12 -4 -10 -32 0 -32 12 0 4 7 6 15 3 8 -4 15 -1 15 5 0 6 8 8 18 4 25 -9 14 0 -48 42 l-55 37 38 -35 c42 -38 36 -47 -29 -47 -19 0 -34 -4 -34 -9 0 -5 -35 -12 -77 -16 -43 -4 -80 -11 -83 -16 -3 -4 -36 -10 -72 -11 l-67 -3 32 -17 c39 -21 29 -23 -18 -4 -34 14 -35 14 -32 -7 2 -18 33 -37 154 -97 138 -68 198 -102 148 -84 -47 17 -307 143 -390 188 -466 255 -770 590 -889 980 -43 139 -56 227 -56 372 0 162 20 301 60 429 181 562 639 972 1292 1154 97 27 290 64 393 75 92 10 493 -3 595 -19z m-2687 -961 c-23 -114 -23 -385 1 -528 74 -449 262 -825 567 -1141 231 -238 408 -359 878 -598 254 -129 421 -226 451 -262 7 -8 -19 6 -56 32 -38 25 -192 106 -343 180 -150 74 -317 158 -370 187 -186 102 -216 118 -199 104 9 -7 31 -21 49 -31 26 -15 30 -20 18 -28 -20 -12 -97 -11 -101 2 -2 6 -22 1 -52 -14 -27 -13 -58 -23 -70 -20 -17 3 -17 1 4 -8 14 -6 37 -11 53 -10 17 1 27 -4 27 -12 0 -8 21 -22 46 -32 25 -9 43 -19 41 -21 -12 -13 -346 136 -482 215 -178 102 -290 186 -410 306 -199 198 -299 384 -346 643 -49 272 6 572 162 885 52 103 137 242 144 235 3 -2 -3 -40 -12 -84z m1787 -94 c110 -219 335 -388 669 -504 56 -20 101 -34 101 -32 0 1 -25 20 -55 41 -79 54 -139 125 -186 220 -36 72 -42 94 -46 169 -6 84 10 201 28 212 5 3 9 -13 9 -35 0 -51 37 -155 80 -220 48 -76 165 -180 256 -227 43 -23 135 -61 204 -84 147 -49 292 -122 371 -185 76 -60 146 -165 183 -274 30 -87 33 -91 111 -158 142 -122 196 -256 165 -407 l-12 -59 -18 41 c-44 97 -168 194 -304 238 -144 46 -372 33 -496 -29 -125 -62 -214 -183 -230 -312 -4 -33 -6 -62 -4 -64 1 -2 9 19 18 45 8 27 15 45 15 39 1 -6 5 -5 9 1 4 7 27 13 52 15 25 2 48 8 51 12 3 5 9 -18 13 -50 8 -66 34 -136 35 -95 1 31 19 62 35 62 7 0 21 9 31 20 l19 21 11 -21 c9 -17 11 -10 7 37 -2 35 1 71 9 91 13 31 14 28 14 -60 0 -83 4 -99 29 -148 44 -84 81 -134 184 -249 184 -205 275 -353 322 -521 86 -312 -26 -660 -297 -920 -56 -54 -64 -60 -28 -20 28 30 53 57 57 60 29 23 136 181 173 255 46 94 73 190 42 150 -15 -19 -16 -19 -23 -2 -3 10 -2 29 5 43 16 36 13 44 -5 11 -16 -30 -34 -28 -34 4 0 25 -41 172 -50 179 -4 3 -12 27 -19 55 -7 27 -16 54 -20 60 -5 5 -12 30 -15 55 -4 25 -14 56 -22 70 -9 14 -13 17 -10 7 30 -97 30 -245 -1 -382 -56 -253 -236 -509 -492 -704 -117 -90 -494 -311 -507 -299 -2 2 25 19 59 38 191 103 402 238 402 257 0 6 4 15 9 20 5 5 6 3 2 -4 -14 -25 11 -12 56 30 l46 42 -10 98 c-8 71 -14 97 -24 97 -10 0 -14 13 -14 41 0 24 -4 38 -10 34 -5 -3 -7 0 -4 8 3 10 -8 20 -35 30 -43 18 -57 32 -41 42 5 3 10 10 10 16 0 5 -32 -27 -71 -72 -97 -110 -208 -203 -374 -313 -131 -88 -211 -133 -639 -365 -661 -359 -951 -662 -1082 -1132 -21 -77 -27 -123 -31 -255 -5 -141 -3 -174 17 -265 29 -135 57 -216 119 -335 27 -54 49 -100 47 -102 -4 -4 -66 83 -66 93 0 3 -18 44 -40 91 -22 48 -49 120 -59 161 -11 41 -23 78 -27 81 -4 4 -4 -1 -1 -10 4 -12 1 -18 -8 -18 -8 0 -15 -7 -15 -15 0 -8 5 -15 10 -15 6 0 10 -10 10 -22 1 -22 11 -43 73 -158 38 -70 29 -73 -12 -5 -122 201 -184 474 -161 708 34 341 187 649 461 927 169 171 323 283 694 503 486 289 632 392 795 557 220 224 323 477 293 719 -12 93 -40 181 -117 366 -63 152 -76 211 -76 335 0 90 4 117 29 188 26 75 100 192 121 192 4 0 11 7 14 16 8 20 -39 -13 -132 -94 -107 -93 -174 -204 -207 -347 l-11 -50 -13 75 c-41 230 78 470 287 581 51 26 53 29 22 23 -19 -3 -82 -24 -140 -45 -174 -66 -272 -85 -376 -74 -35 4 -64 11 -64 16 0 5 8 9 18 9 31 0 145 60 227 119 98 71 134 90 209 111 l58 16 -143 1 c-232 0 -358 43 -479 163 -64 63 -119 140 -100 140 5 0 12 -5 16 -11 13 -21 171 -89 245 -105 53 -11 115 -15 219 -13 80 2 185 3 234 4 l89 0 -49 13 c-278 74 -469 187 -602 355 -102 130 -153 270 -151 420 0 71 1 71 13 37 7 -19 28 -64 46 -100z m-2231 -1264 c167 -291 479 -552 904 -756 131 -63 468 -201 562 -230 201 -63 662 -258 720 -305 11 -8 -18 3 -65 26 -163 80 -763 300 -777 285 -4 -3 -2 -6 3 -6 6 0 19 -7 30 -15 18 -15 18 -15 -8 -9 -19 4 -32 0 -47 -15 -12 -12 -30 -21 -41 -21 -11 0 -20 -5 -20 -10 0 -6 -12 -22 -27 -35 -24 -21 -26 -26 -13 -34 10 -7 -7 -8 -53 -4 -37 3 -67 3 -67 0 0 -2 37 -10 83 -16 112 -17 189 -32 185 -37 -7 -7 -334 45 -455 72 -216 48 -420 129 -572 228 -96 62 -231 193 -288 280 -139 211 -197 499 -156 779 l5 39 33 -80 c18 -45 47 -106 64 -136z m1871 -696 c8 -5 12 -11 9 -14 -3 -3 -14 1 -25 9 -21 16 -8 20 16 5z m-530 -65 c0 -8 -6 -15 -14 -15 -17 0 -28 14 -19 24 12 12 33 6 33 -9z m-1304 -146 c36 -38 139 -106 224 -149 236 -119 509 -176 1110 -235 144 -14 352 -48 465 -75 112 -27 300 -88 293 -96 -2 -2 -46 10 -97 26 -110 35 -242 64 -381 85 -118 18 -450 48 -457 42 -2 -3 27 -8 64 -12 105 -10 154 -24 68 -19 l-70 4 45 -14 c25 -8 39 -14 33 -15 -7 -1 -30 -19 -50 -41 -26 -27 -46 -40 -65 -40 -15 0 -30 -4 -33 -10 -3 -5 -24 -10 -46 -10 -21 0 -39 -4 -39 -10 0 -5 -18 -10 -40 -10 -22 0 -40 -4 -40 -9 0 -5 -36 -12 -80 -16 -44 -4 -83 -11 -86 -16 -3 -5 -22 -9 -42 -10 l-37 -1 30 -9 c17 -6 118 -14 225 -19 l195 -8 -215 3 c-238 4 -316 16 -469 75 -198 77 -388 251 -480 443 -33 68 -71 177 -63 177 5 0 21 -14 38 -31z m1469 21 c3 -6 -1 -7 -9 -4 -18 7 -21 14 -7 14 6 0 13 -4 16 -10z m-135 -139 c0 -5 -7 -11 -15 -15 -9 -3 -15 0 -15 9 0 8 7 15 15 15 8 0 15 -4 15 -9z m47 -17 c-3 -3 -12 -4 -19 -1 -8 3 -5 6 6 6 11 1 17 -2 13 -5z m964 -161 c13 -16 12 -17 -3 -4 -10 7 -18 15 -18 17 0 8 8 3 21 -13z m1874 -178 c221 -129 407 -268 548 -408 186 -185 351 -451 430 -692 144 -438 141 -882 -8 -1305 -34 -97 -161 -355 -183 -372 -15 -11 -15 -11 -5 3 29 37 143 283 176 379 63 184 99 374 95 506 l-1 69 -7 -65 c-4 -36 -8 -54 -10 -40 -2 14 -6 -4 -10 -40 l-7 -65 -3 65 c-1 36 -5 55 -7 43 -4 -19 -11 -23 -39 -23 -38 0 -74 -15 -74 -30 0 -6 7 -10 15 -10 8 0 15 -9 15 -20 0 -16 -7 -20 -38 -20 -28 0 -41 -6 -52 -22 -8 -12 -27 -35 -42 -51 -16 -16 -28 -38 -28 -49 0 -11 -11 -29 -25 -40 -14 -11 -25 -27 -25 -37 0 -9 -10 -25 -21 -35 -21 -18 -22 -18 -16 6 3 13 2 29 -2 36 -5 9 -10 -1 -14 -30 -4 -28 -2 -45 6 -50 8 -5 5 -8 -7 -8 -10 0 -25 -8 -33 -17 -12 -15 -15 -16 -20 -4 -3 8 -25 -44 -48 -115 -74 -227 -202 -454 -363 -644 -272 -322 -661 -557 -1102 -666 -224 -56 -398 -77 -615 -78 -210 0 -297 10 -457 55 -585 163 -984 577 -1083 1123 -10 54 -13 62 -14 34 -1 -37 -13 -49 -26 -27 -4 6 -17 14 -29 18 -18 7 -22 4 -27 -23 -4 -17 -7 18 -8 77 -1 115 25 279 56 347 51 113 75 160 97 193 15 21 26 42 26 48 0 6 5 7 10 4 6 -3 10 1 10 9 0 9 4 16 10 16 5 0 7 -8 3 -17 -3 -10 4 -6 16 9 13 16 19 33 15 40 -4 7 -3 10 1 5 5 -4 21 11 36 34 30 46 178 219 186 219 5 0 -21 -35 -37 -50 -15 -13 -101 -131 -134 -182 -64 -101 -155 -332 -156 -398 0 -13 17 -15 105 -13 l105 2 0 -28 c0 -15 -3 -30 -6 -34 -9 -9 -10 -106 -1 -100 4 2 7 19 7 38 0 39 24 161 39 196 6 13 22 56 37 94 27 70 88 182 119 220 9 11 5 0 -10 -25 -138 -235 -193 -459 -166 -677 60 -485 436 -897 966 -1058 156 -47 263 -65 425 -72 388 -16 743 79 1095 292 469 285 795 748 895 1274 25 128 39 390 28 516 -31 365 -234 769 -515 1023 -73 66 -240 198 -278 219 -16 9 -15 15 4 77 43 138 48 285 15 400 -8 27 -14 51 -14 53 0 2 17 -7 38 -20 20 -13 82 -50 137 -82z m-2005 49 c0 -2 -9 0 -20 6 -11 6 -20 13 -20 16 0 2 9 0 20 -6 11 -6 20 -13 20 -16z m-65 -154 c3 -6 -1 -7 -9 -4 -18 7 -21 14 -7 14 6 0 13 -4 16 -10z m-862 -77 c-13 -2 -33 -2 -45 0 -13 2 -3 4 22 4 25 0 35 -2 23 -4z m683 -63 c95 -10 198 -29 192 -36 -3 -2 -42 4 -89 12 -106 21 -346 13 -499 -15 -58 -11 -176 -32 -262 -47 -161 -28 -214 -47 -69 -24 52 8 85 9 96 3 14 -8 10 -11 -23 -17 -22 -3 -47 -3 -55 0 -8 3 -18 1 -22 -5 -3 -6 -1 -11 6 -11 7 0 3 -9 -9 -20 -13 -12 -35 -20 -57 -20 -30 0 -35 -3 -35 -24 0 -23 -4 -24 -77 -30 -43 -4 -121 -9 -174 -11 -90 -3 -179 -27 -179 -47 0 -4 19 -16 43 -27 54 -26 37 -27 -28 -2 -68 26 -170 85 -225 129 -49 40 -161 154 -156 159 2 2 23 -5 47 -15 66 -29 162 -50 277 -63 124 -13 316 0 532 37 312 54 389 66 485 73 144 12 179 12 281 1z m1821 -92 c-3 -8 -6 -5 -6 6 -1 11 2 17 5 13 3 -3 4 -12 1 -19z m-2414 -5 c-7 -2 -21 -2 -30 0 -10 3 -4 5 12 5 17 0 24 -2 18 -5z m787 -123 c-177 -15 -299 -55 -555 -181 -93 -47 -192 -94 -220 -107 -27 -12 -40 -20 -28 -18 13 2 25 0 28 -4 3 -4 -10 -7 -28 -5 -17 1 -65 -6 -106 -16 -41 -11 -89 -19 -105 -20 -49 -1 111 -39 169 -40 28 0 70 -4 95 -8 l45 -8 -40 -2 c-72 -2 -212 19 -287 42 l-73 23 80 13 c120 19 210 53 425 156 292 141 431 183 605 182 l80 0 -85 -7z m873 -54 c-10 -13 -20 -22 -22 -20 -4 4 29 44 36 44 2 0 -4 -11 -14 -24z m-1826 -82 c-3 -3 -12 -4 -19 -1 -8 3 -5 6 6 6 11 1 17 -2 13 -5z m-244 -11 c-13 -2 -35 -2 -50 0 -16 2 -5 4 22 4 28 0 40 -2 28 -4z m170 0 c-13 -2 -35 -2 -50 0 -16 2 -5 4 22 4 28 0 40 -2 28 -4z m484 -57 c0 -8 -6 -12 -15 -9 -11 5 -11 7 0 14 7 5 13 9 14 9 0 0 1 -6 1 -14z m-98 -50 c-2 -2 -15 -9 -29 -15 -24 -11 -24 -11 -6 3 16 13 49 24 35 12z m48 -132 c-3 -3 -12 -4 -19 -1 -8 3 -5 6 6 6 11 1 17 -2 13 -5z m-74 -11 c-7 -2 -19 -2 -25 0 -7 3 -2 5 12 5 14 0 19 -2 13 -5z m1097 -358 c0 -6 -56 -35 -67 -35 -4 1 8 9 27 20 39 22 40 22 40 15z m1640 -755 l0 -660 -130 0 -130 0 0 660 0 660 130 0 130 0 0 -660z m-1252 -388 c-2 -375 0 -682 5 -682 4 0 7 4 7 9 0 14 101 88 166 120 34 17 94 40 135 52 69 21 98 22 462 26 l387 5 0 59 0 59 45 0 45 0 0 -139 0 -139 -422 -4 c-392 -4 -429 -6 -500 -26 -130 -35 -225 -91 -319 -186 -46 -47 -58 -54 -68 -43 -6 8 -8 22 -5 31 6 15 7 15 19 0 8 -12 14 -14 19 -6 4 7 2 12 -4 12 -6 0 -8 5 -5 10 4 6 10 8 15 5 4 -3 14 3 21 13 12 15 12 16 -1 6 -8 -6 -23 -10 -32 -9 -10 2 -21 -1 -24 -6 -3 -6 -11 -5 -20 2 -7 6 -11 16 -7 22 4 6 1 7 -6 3 -9 -6 -9 -12 3 -25 36 -40 11 -28 -56 28 -78 63 -158 107 -248 137 -48 16 -104 19 -450 24 l-395 5 -3 378 c-1 210 2 392 7 410 l9 32 2 -40 c1 -28 4 -34 9 -22 4 10 10 18 14 18 23 -3 27 3 27 42 0 23 5 49 10 57 6 10 10 -109 10 -347 l0 -361 338 -5 c357 -4 397 -9 507 -58 60 -26 151 -87 184 -123 14 -14 27 -26 30 -26 3 0 5 291 3 647 -3 564 4 883 16 790 3 -23 8 -28 22 -24 12 3 21 -1 23 -12 3 -9 6 7 7 34 l2 50 9 -60 c5 -33 8 -367 7 -743z m852 246 c0 -211 -3 -413 -7 -450 l-6 -68 -128 0 -129 0 0 450 0 450 135 0 135 0 0 -382z m-1162 270 l-3 -43 -135 -3 c-74 -2 -205 0 -290 4 -129 7 -145 9 -98 15 32 3 64 12 72 18 7 6 40 15 72 20 l59 9 -85 1 c-47 1 -92 6 -100 11 -10 6 75 10 248 10 l263 0 -3 -42z m-1020 -18 c-7 -10 -14 -17 -17 -15 -4 4 18 35 25 35 2 0 -1 -9 -8 -20z m1782 -505 l0 -265 -130 0 -130 0 0 265 0 265 130 0 130 0 0 -265z m-762 198 l3 -43 -310 0 -311 0 0 33 c0 18 5 38 12 45 9 9 86 12 308 10 l295 -3 3 -42z m-1451 -120 c-3 -10 -5 -4 -5 12 0 17 2 24 5 18 2 -7 2 -21 0 -30z m190 15 c-3 -8 -6 -5 -6 6 -1 11 2 17 5 13 3 -3 4 -12 1 -19z m3408 -157 c0 -33 -4 -57 -8 -54 -5 3 -6 12 -3 20 3 8 1 11 -4 8 -6 -3 -10 -15 -10 -25 0 -10 -4 -21 -8 -24 -5 -3 -6 8 -4 25 2 16 8 32 13 35 5 3 9 18 9 33 0 22 7 41 14 41 1 0 1 -27 1 -59z m-2145 -63 l0 -43 -308 2 -307 1 -3 27 c-7 57 -18 55 313 55 l305 0 0 -42z m2070 -139 c0 -5 -4 -9 -10 -9 -5 0 -10 7 -10 16 0 8 5 12 10 9 6 -3 10 -10 10 -16z m-3673 -101 c-3 -7 -5 -2 -5 12 0 14 2 19 5 13 2 -7 2 -19 0 -25z m17 -63 c5 -22 4 -26 -4 -15 -5 8 -10 24 -10 34 0 26 6 18 14 -19z m3896 -15 c-6 -11 -13 -20 -16 -20 -2 0 0 9 6 20 6 11 13 20 16 20 2 0 0 -9 -6 -20z m-56 -85 c-9 -14 -18 -25 -21 -25 -5 0 5 18 20 38 17 22 18 13 1 -13z m-3817 -7 c-3 -8 -6 -5 -6 6 -1 11 2 17 5 13 3 -3 4 -12 1 -19z m-163 -73 c8 -32 13 -61 11 -63 -3 -4 -15 34 -31 103 -12 54 4 21 20 -40z m3956 42 c0 -2 -10 -12 -22 -23 l-23 -19 19 23 c18 21 26 27 26 19z m-40 -50 c0 -2 -12 -14 -27 -28 l-28 -24 24 28 c23 25 31 32 31 24z m-50 -60 c0 -2 -12 -14 -27 -28 l-28 -24 24 28 c23 25 31 32 31 24z m-90 -91 c0 -2 -8 -10 -17 -17 -16 -13 -17 -12 -4 4 13 16 21 21 21 13z m-4416 -1206 c77 -29 84 -41 51 -84 l-26 -35 -35 21 c-43 25 -139 34 -174 16 -28 -15 -38 -52 -20 -73 6 -8 55 -24 108 -36 53 -12 112 -31 131 -42 60 -36 78 -118 38 -178 -57 -87 -214 -110 -340 -51 -37 17 -67 36 -67 41 0 6 13 25 28 42 l28 31 38 -26 c67 -45 178 -49 220 -7 19 20 20 23 6 49 -13 23 -29 30 -105 49 -49 12 -105 29 -125 38 -67 31 -95 100 -67 167 36 87 187 124 311 78z m2517 3 c68 -22 149 -99 167 -159 40 -137 -27 -275 -157 -319 -24 -8 -54 -15 -65 -14 -15 1 -12 4 12 11 35 12 43 28 13 28 -29 0 -35 18 -9 23 13 2 -2 2 -33 -1 -42 -3 -68 1 -103 16 -52 23 -62 21 -15 -3 25 -14 30 -21 25 -41 -6 -23 -4 -24 39 -24 25 0 45 -5 45 -10 0 -15 -95 -2 -146 20 -98 42 -154 125 -154 228 0 73 15 114 60 166 76 86 202 117 321 79z m1874 -11 c22 -11 49 -27 60 -36 20 -15 19 -15 -13 -48 -27 -28 -35 -31 -50 -20 -39 27 -70 36 -132 37 -51 0 -73 -5 -103 -24 -104 -64 -101 -232 4 -286 44 -23 121 -30 175 -15 49 14 56 23 58 73 l1 32 -63 -3 -62 -4 0 41 0 41 110 0 110 0 0 -99 0 -98 -58 -31 c-32 -17 -78 -33 -103 -36 l-44 -5 48 11 c26 6 47 15 47 20 0 5 4 7 9 4 5 -3 27 8 49 24 l40 29 -5 58 c-7 72 -13 82 -13 20 0 -50 -9 -58 -31 -30 -13 15 -14 13 -19 -12 -10 -57 -159 -82 -239 -40 -33 17 -47 18 -43 4 3 -14 -10 -11 -30 8 -10 9 -18 11 -18 6 0 -6 7 -16 15 -23 8 -7 13 -16 10 -20 -3 -5 5 -16 17 -24 30 -21 14 -20 -20 1 -47 29 -83 67 -104 108 -29 56 -29 155 0 211 28 55 100 117 159 137 66 23 184 18 238 -11z m-3770 -45 c-1 -34 -2 -146 -3 -249 l-2 -188 -50 0 -50 0 0 250 0 250 53 0 52 0 0 -63z m666 -69 c45 -73 88 -141 94 -151 11 -16 23 -1 105 132 l93 151 70 0 69 0 -3 -250 -4 -250 -53 0 -53 0 1 173 c0 94 1 177 0 182 0 6 -19 -19 -41 -55 -67 -106 -171 -260 -175 -260 -4 0 -112 165 -168 258 -21 35 -40 62 -41 60 -2 -2 -5 -83 -6 -181 l-2 -177 -48 0 -49 0 0 250 0 250 64 0 64 0 83 -132z m2180 109 c80 -42 110 -143 63 -215 -13 -20 -62 -56 -89 -65 -5 -2 1 -14 13 -28 18 -19 86 -105 124 -155 5 -7 -10 -11 -47 -13 -59 -2 -56 -5 -159 138 -28 39 -32 41 -83 41 -29 0 -56 0 -59 0 -3 0 -6 -39 -7 -87 l-2 -88 -47 -3 -48 -3 0 250 0 251 148 0 c136 0 153 -2 193 -23z m1554 -77 c0 -55 3 -100 8 -100 4 0 61 0 127 0 l120 0 0 100 0 100 56 0 56 0 -5 -247 c-4 -137 -6 -249 -7 -250 0 -2 -20 -3 -45 -3 l-45 0 0 105 0 105 -135 0 -135 0 0 -105 0 -105 -50 0 -50 0 0 250 0 250 53 0 52 0 0 -100z m-585 -285 c11 -13 10 -14 -4 -9 -9 3 -16 10 -16 15 0 13 6 11 20 -6z m-2037 -72 c-7 -2 -19 -2 -25 0 -7 3 -2 5 12 5 14 0 19 -2 13 -5z m1877 -42 c0 -8 -90 -3 -99 5 -2 2 19 4 47 4 29 0 52 -4 52 -9z m-3590 -451 c0 -6 -116 -10 -329 -10 -209 0 -332 4 -336 10 -4 7 108 10 329 10 217 0 336 -4 336 -10z m4300 0 c-21 -13 -640 -13 -640 0 0 6 116 10 328 10 215 0 322 -4 312 -10z"/>
<text x="6400" y="-1690" text-anchor="middle" font-size="400" fill="#FFFFFF" font-family="Arial" letter-spacing="400" transform="scale(1,-1)">LEDGER</text>
</g>
</svg>
